<?xml version="1.0" encoding="utf-8"?>
<!-- Generator: Adobe Illustrator 25.2.1, SVG Export Plug-In . SVG Version: 6.00 Build 0)  -->
<svg version="1.1" id="Слой_1" xmlns="http://www.w3.org/2000/svg" xmlns:xlink="http://www.w3.org/1999/xlink" x="0px" y="0px"
	 viewBox="0 0 19 20" style="enable-background:new 0 0 19 20;" xml:space="preserve">
<style type="text/css">
	.st0{fill:none;stroke:#151C22;stroke-width:2;stroke-linecap:round;stroke-linejoin:round;}
</style>
<path class="st0" d="M1,1h3.1l2.1,11.6c0.1,0.4,0.3,0.8,0.5,1C7,13.9,7.4,14,7.7,14h7.5c0.4,0,0.7-0.1,1-0.4c0.3-0.3,0.5-0.6,0.5-1
	L18,5.4H4.9 M8,18.2C8,18.6,7.6,19,7.2,19c-0.4,0-0.8-0.4-0.8-0.8c0-0.5,0.3-0.8,0.8-0.8C7.6,17.4,8,17.7,8,18.2z M16.5,18.2
	c0,0.5-0.3,0.8-0.8,0.8c-0.4,0-0.8-0.4-0.8-0.8c0-0.5,0.3-0.8,0.8-0.8C16.1,17.4,16.5,17.7,16.5,18.2z"/>
</svg>
