<svg width="21" height="20" viewBox="0 0 21 20" fill="none" xmlns="http://www.w3.org/2000/svg">
<path d="M10.6328 0C13.2782 0 13.6082 0.00999994 14.6461 0.0599999C15.683 0.11 16.3889 0.277 17.0101 0.525C17.6527 0.779 18.194 1.123 18.7354 1.678C19.2305 2.1779 19.6136 2.78259 19.858 3.45C20.0985 4.087 20.262 4.813 20.3107 5.878C20.3565 6.944 20.3691 7.283 20.3691 10C20.3691 12.717 20.3594 13.056 20.3107 14.122C20.262 15.187 20.0985 15.912 19.858 16.55C19.6143 17.2178 19.2311 17.8226 18.7354 18.322C18.2485 18.8303 17.6598 19.2238 17.0101 19.475C16.3899 19.722 15.683 19.89 14.6461 19.94C13.6082 19.987 13.2782 20 10.6328 20C7.98745 20 7.65739 19.99 6.6195 19.94C5.58258 19.89 4.8767 19.722 4.25552 19.475C3.60545 19.2245 3.0166 18.8309 2.53024 18.322C2.03506 17.8222 1.65196 17.2175 1.40764 16.55C1.16618 15.913 1.00358 15.187 0.954902 14.122C0.909142 13.056 0.896484 12.717 0.896484 10C0.896484 7.283 0.906221 6.944 0.954902 5.878C1.00358 4.812 1.16618 4.088 1.40764 3.45C1.65128 2.78218 2.03447 2.17732 2.53024 1.678C3.01674 1.16923 3.60555 0.775729 4.25552 0.525C4.8767 0.277 5.58161 0.11 6.6195 0.0599999C7.65739 0.0129999 7.98745 0 10.6328 0ZM10.6328 5C9.34169 5 8.10346 5.52678 7.1905 6.46447C6.27754 7.40215 5.76465 8.67392 5.76465 10C5.76465 11.3261 6.27754 12.5979 7.1905 13.5355C8.10346 14.4732 9.34169 15 10.6328 15C11.9239 15 13.1622 14.4732 14.0751 13.5355C14.9881 12.5979 15.501 11.3261 15.501 10C15.501 8.67392 14.9881 7.40215 14.0751 6.46447C13.1622 5.52678 11.9239 5 10.6328 5ZM16.9614 4.75C16.9614 4.41848 16.8332 4.10054 16.605 3.86612C16.3767 3.6317 16.0672 3.5 15.7444 3.5C15.4216 3.5 15.112 3.6317 14.8838 3.86612C14.6556 4.10054 14.5273 4.41848 14.5273 4.75C14.5273 5.08152 14.6556 5.39946 14.8838 5.63388C15.112 5.8683 15.4216 6 15.7444 6C16.0672 6 16.3767 5.8683 16.605 5.63388C16.8332 5.39946 16.9614 5.08152 16.9614 4.75ZM10.6328 7C11.4075 7 12.1504 7.31607 12.6982 7.87868C13.246 8.44129 13.5537 9.20435 13.5537 10C13.5537 10.7956 13.246 11.5587 12.6982 12.1213C12.1504 12.6839 11.4075 13 10.6328 13C9.85814 13 9.1152 12.6839 8.56743 12.1213C8.01965 11.5587 7.71191 10.7956 7.71191 10C7.71191 9.20435 8.01965 8.44129 8.56743 7.87868C9.1152 7.31607 9.85814 7 10.6328 7Z" fill="white"/>
</svg>
