<svg width="21" height="21" viewBox="0 0 21 21" fill="none" xmlns="http://www.w3.org/2000/svg">
<path d="M12.2171 0.0940773C9.79041 -0.235069 7.32485 0.31263 5.27572 1.63604C3.2266 2.95945 1.7323 4.96919 1.06876 7.29417C0.405214 9.61914 0.617239 12.1023 1.66568 14.2852C2.71413 16.468 4.52818 18.2032 6.77287 19.1701C6.71216 18.4019 6.76788 17.6291 6.93818 16.8771C7.12581 16.0381 8.2526 11.4141 8.2526 11.4141C8.02822 10.9182 7.91609 10.3801 7.92399 9.83711C7.92399 8.3521 8.79317 7.2441 9.87432 7.2441C10.0685 7.24131 10.2611 7.27979 10.4389 7.35693C10.6167 7.43407 10.7756 7.54805 10.9047 7.69112C11.0338 7.8342 11.1302 8.00302 11.1873 8.18609C11.2443 8.36917 11.2607 8.56222 11.2354 8.7521C11.2354 9.65211 10.6492 11.0141 10.3429 12.2921C10.2823 12.5265 10.2785 12.7716 10.3317 13.0077C10.3848 13.2438 10.4935 13.4643 10.6489 13.6515C10.8044 13.8386 11.0022 13.9871 11.2265 14.085C11.4508 14.1829 11.6953 14.2275 11.9403 14.2151C13.8652 14.2151 15.1553 11.7841 15.1553 8.9141C15.1553 6.7141 13.6776 5.06609 10.9534 5.06609C10.3017 5.04112 9.65158 5.14702 9.0426 5.37735C8.43362 5.60768 7.87847 5.95764 7.41086 6.40599C6.94324 6.85433 6.57292 7.3917 6.32238 7.98548C6.07184 8.57925 5.9463 9.21703 5.95339 9.86011C5.92435 10.5734 6.15775 11.2731 6.61059 11.8301C6.69521 11.8924 6.757 11.9801 6.78663 12.08C6.81627 12.18 6.81215 12.2867 6.7749 12.3841C6.72824 12.5681 6.61059 13.0071 6.56394 13.1681C6.55424 13.2227 6.53166 13.2743 6.49804 13.3187C6.46442 13.3632 6.42068 13.3992 6.37036 13.4239C6.32004 13.4486 6.26453 13.4613 6.20831 13.461C6.1521 13.4607 6.09674 13.4474 6.04669 13.4221C4.64303 12.8681 3.98177 11.3451 3.98177 9.60611C3.98177 6.7591 6.39964 3.35109 11.2374 3.35109C15.0873 3.35109 17.6472 6.1281 17.6472 9.09811C17.6472 13.0071 15.4393 15.9461 12.1766 15.9461C11.6889 15.9615 11.2052 15.8554 10.7702 15.6376C10.3352 15.4198 9.96286 15.0974 9.6877 14.7001C9.6877 14.7001 9.10149 17.0161 8.98587 17.4541C8.74986 18.2108 8.40159 18.9289 7.95239 19.5851C8.88851 19.8651 9.86113 20.0051 10.8388 20.0011C12.1711 20.0022 13.4904 19.7441 14.7214 19.2417C15.9523 18.7393 17.0707 18.0024 18.0124 17.0732C18.9541 16.1441 19.7007 15.0409 20.2094 13.8268C20.718 12.6128 20.9789 11.3117 20.9769 9.99811C20.9756 7.5831 20.0882 5.25009 18.4785 3.42987C16.8688 1.60965 14.6455 0.425143 12.2192 0.0950772L12.2171 0.0940773Z" fill="white"/>
</svg>
