<svg width="20" height="18" viewBox="0 0 20 18" fill="none" xmlns="http://www.w3.org/2000/svg">
<path d="M19.9179 2.65593C19.1746 2.99362 18.3863 3.2154 17.5792 3.31393C18.43 2.79136 19.0667 1.96894 19.3707 0.999927C18.5723 1.48793 17.697 1.82993 16.7847 2.01493C16.1719 1.34151 15.3597 0.89489 14.4743 0.744511C13.5888 0.594133 12.6798 0.748418 11.8886 1.18338C11.0973 1.61834 10.4682 2.30961 10.0989 3.14972C9.72962 3.98983 9.64093 4.93171 9.84661 5.82894C8.22755 5.74559 6.64367 5.31346 5.19777 4.5606C3.75188 3.80774 2.4763 2.75098 1.45386 1.45893C1.09195 2.09738 0.901761 2.82316 0.902778 3.56193C0.902778 5.01193 1.62132 6.29294 2.71374 7.04294C2.06726 7.02204 1.435 6.84272 0.869674 6.51994V6.57194C0.869869 7.53764 1.19523 8.47356 1.79059 9.221C2.38594 9.96845 3.21466 10.4814 4.13623 10.6729C3.53609 10.84 2.90682 10.8646 2.29605 10.7449C2.55588 11.5762 3.06231 12.3031 3.74443 12.8241C4.42654 13.345 5.25019 13.6337 6.10005 13.65C5.2554 14.3313 4.28829 14.8349 3.254 15.1321C2.2197 15.4293 1.13852 15.5142 0.0722656 15.382C1.93357 16.6114 4.1003 17.2641 6.31328 17.262C13.8035 17.262 17.8996 10.8889 17.8996 5.36194C17.8996 5.18194 17.8947 4.99993 17.8869 4.82193C18.6842 4.2301 19.3723 3.49695 19.9189 2.65693L19.9179 2.65593Z" fill="white"/>
</svg>
