<svg width="21" height="20" fill="none" xmlns="http://www.w3.org/2000/svg"><path d="M10.633 0c2.645 0 2.975.01 4.013.06 1.037.05 1.743.217 2.364.465a4.737 4.737 0 011.725 1.153c.495.5.879 1.105 1.123 1.772.24.637.404 1.363.453 2.428.046 1.066.058 1.405.058 4.122 0 2.717-.01 3.056-.058 4.122-.049 1.065-.212 1.79-.453 2.428a4.898 4.898 0 01-1.123 1.772 4.775 4.775 0 01-1.725 1.153c-.62.247-1.327.415-2.364.465-1.038.047-1.368.06-4.013.06-2.646 0-2.976-.01-4.013-.06-1.037-.05-1.743-.218-2.364-.465a4.751 4.751 0 01-1.726-1.153 4.919 4.919 0 01-1.122-1.772c-.242-.637-.404-1.363-.453-2.428C.909 13.056.896 12.717.896 10c0-2.717.01-3.056.059-4.122.049-1.066.211-1.79.453-2.428A4.895 4.895 0 012.53 1.678 4.758 4.758 0 014.256.525C4.876.277 5.582.11 6.62.06 7.657.013 7.987 0 10.633 0zm0 5c-1.291 0-2.53.527-3.442 1.464A5.07 5.07 0 005.764 10a5.07 5.07 0 001.426 3.536A4.804 4.804 0 0010.633 15c1.29 0 2.53-.527 3.442-1.464A5.07 5.07 0 0015.501 10a5.07 5.07 0 00-1.426-3.536A4.804 4.804 0 0010.633 5zm6.328-.25c0-.332-.128-.65-.356-.884a1.201 1.201 0 00-.86-.366 1.2 1.2 0 00-.861.366 1.268 1.268 0 00-.357.884c0 .332.129.65.357.884a1.2 1.2 0 00.86.366c.323 0 .633-.132.861-.366.228-.235.356-.552.356-.884zM10.633 7a2.88 2.88 0 012.065.879c.548.562.856 1.325.856 2.121s-.308 1.559-.856 2.121a2.882 2.882 0 01-2.065.879 2.882 2.882 0 01-2.066-.879A3.042 3.042 0 017.712 10c0-.796.308-1.559.855-2.121A2.882 2.882 0 0110.633 7z" fill="#fff"/></svg>