<svg class="logo" data-name="logo" xmlns="http://www.w3.org/2000/svg" viewBox="0 0 75 20"><path class="logo" fill="#151c22" d="M15.47 2.12V20H9.9l-4.47-8.86-1-2.41.09 3.53V20H0V2.12h5.55L10 11l1 2.42V2.12zm7.76 4.33V20h-5V6.45zm2.54-1.68h-3.51L20.72 2.6l-1.54 2.17h-3.51L18.36 0h4.72zM25.66 20V6.45h4.52l.12 2.79A4.72 4.72 0 0132 7a4.34 4.34 0 012.61-.79 4 4 0 012.36.71 3.79 3.79 0 011.41 2 4.17 4.17 0 012.4-2.38 4.76 4.76 0 011.74-.33 4.13 4.13 0 012.14.54A3.46 3.46 0 0146 8.29a5.73 5.73 0 01.5 2.55V20h-5v-7.8a2.63 2.63 0 00-.32-1.49 1.1 1.1 0 00-.92-.43 1.6 1.6 0 00-.92.27 1.66 1.66 0 00-.57.86 4.36 4.36 0 00-.19 1.44V20h-5v-7.8a2.49 2.49 0 00-.33-1.49 1 1 0 00-.92-.43 1.5 1.5 0 00-1.46 1.13 4.55 4.55 0 00-.21 1.47V20zm29.64 0a8 8 0 01-3.71-.81 5.8 5.8 0 01-2.38-2.4 8.39 8.39 0 01-.82-3.79 8.14 8.14 0 01.84-3.81 5.73 5.73 0 012.36-2.37 7 7 0 013.52-.85 6.54 6.54 0 013.44.85A5.34 5.34 0 0160.74 9a7.46 7.46 0 01.78 3.39v.92a2.4 2.4 0 01-.08.79h-9.81v-2.33h7.58l-2.4 1a5.43 5.43 0 00-.39-2.33 1.34 1.34 0 00-1.31-.81A1.83 1.83 0 0054 10a1.92 1.92 0 00-.64 1.13 7.43 7.43 0 00-.21 2 6.3 6.3 0 00.25 2 1.86 1.86 0 00.74 1 2.32 2.32 0 001.2.27 1.94 1.94 0 001.26-.4 2 2 0 00.64-1l4 1.31a4 4 0 01-1.19 2 5.74 5.74 0 01-2.14 1.28 8.42 8.42 0 01-2.61.41zm13.55 0a10.11 10.11 0 01-3.48-.6 7.5 7.5 0 01-2.81-1.76l2-2.89A6.2 6.2 0 0066.29 16a4.87 4.87 0 002.24.54 2.42 2.42 0 001-.16.56.56 0 00.2-1 2 2 0 00-.87-.33l-1.3-.27A7.37 7.37 0 0164 13.22a3.73 3.73 0 01-1-2.76 4 4 0 01.62-2.14 4.78 4.78 0 012.07-1.74 8.14 8.14 0 013.57-.67 9.4 9.4 0 013.28.57 5.68 5.68 0 012.42 1.57l-2 2.81a4.88 4.88 0 00-1.69-1.13 5.24 5.24 0 00-1.86-.38 3.06 3.06 0 00-.8.08 1.13 1.13 0 00-.5.25.49.49 0 00-.14.37.65.65 0 00.27.5 4.18 4.18 0 001 .35l2 .37a4.87 4.87 0 012.86 1.41 3.73 3.73 0 01.9 2.52 4.56 4.56 0 01-.65 2.41 4.5 4.5 0 01-2 1.74 8 8 0 01-3.5.65z"/></svg>