<svg width="21" height="21" fill="none" xmlns="http://www.w3.org/2000/svg"><path d="M12.217.094a10.26 10.26 0 00-6.941 1.542 10.014 10.014 0 00-4.207 5.658 9.875 9.875 0 00.597 6.991 10.081 10.081 0 005.107 4.885 7.65 7.65 0 01.165-2.293 750.3 750.3 0 011.315-5.463 3.694 3.694 0 01-.329-1.577c0-1.485.87-2.593 1.95-2.593a1.37 1.37 0 011.03.447 1.33 1.33 0 01.331 1.061c0 .9-.586 2.262-.892 3.54a1.521 1.521 0 00.306 1.36 1.565 1.565 0 001.291.563c1.925 0 3.215-2.43 3.215-5.3 0-2.2-1.477-3.849-4.202-3.849a4.875 4.875 0 00-1.91.311c-.61.23-1.165.58-1.632 1.029a4.743 4.743 0 00-1.089 1.58 4.688 4.688 0 00-.369 1.874 2.933 2.933 0 00.658 1.97.48.48 0 01.164.554 36.81 36.81 0 01-.211.784.351.351 0 01-.194.256.363.363 0 01-.323-.002c-1.404-.554-2.065-2.077-2.065-3.816 0-2.847 2.418-6.255 7.255-6.255 3.85 0 6.41 2.777 6.41 5.747 0 3.91-2.208 6.848-5.47 6.848a2.935 2.935 0 01-1.407-.308 2.89 2.89 0 01-1.082-.938s-.587 2.316-.702 2.754a7.978 7.978 0 01-1.034 2.131 9.93 9.93 0 002.887.416 10.255 10.255 0 003.882-.76 10.14 10.14 0 003.291-2.168 9.979 9.979 0 002.197-3.246 9.868 9.868 0 00.768-3.829 9.921 9.921 0 00-2.498-6.568 10.186 10.186 0 00-6.26-3.335h-.002z" fill="#fff"/></svg>