<svg width="20" height="18" fill="none" xmlns="http://www.w3.org/2000/svg"><path d="M19.918 2.656a7.996 7.996 0 01-2.339.658A4.178 4.178 0 0019.371 1a8.009 8.009 0 01-2.586 1.015 4.04 4.04 0 00-2.31-1.27 3.978 3.978 0 00-2.586.438 4.14 4.14 0 00-1.79 1.967 4.286 4.286 0 00-.252 2.679 11.323 11.323 0 01-4.65-1.268 11.625 11.625 0 01-3.743-3.102 4.255 4.255 0 00-.551 2.103c0 1.45.718 2.73 1.81 3.48A3.977 3.977 0 01.87 6.52v.052c0 .966.325 1.902.92 2.649a4.057 4.057 0 002.346 1.452 3.99 3.99 0 01-1.84.072c.26.831.766 1.558 1.448 2.08.683.52 1.506.809 2.356.825a8.094 8.094 0 01-2.846 1.482 7.966 7.966 0 01-3.182.25 11.299 11.299 0 006.241 1.88c7.49 0 11.587-6.373 11.587-11.9 0-.18-.005-.362-.013-.54a8.4 8.4 0 002.032-2.165l-.001-.001z" fill="#fff"/></svg>